<?xml version="1.0" standalone="no"?>
<!DOCTYPE svg PUBLIC "-//W3C//DTD SVG 20010904//EN"
 "http://www.w3.org/TR/2001/REC-SVG-20010904/DTD/svg10.dtd">
<svg version="1.0" xmlns="http://www.w3.org/2000/svg"
 width="512.000000pt" height="512.000000pt" viewBox="0 0 512.000000 512.000000"
 preserveAspectRatio="xMidYMid meet">
<metadata>
Created by potrace 1.14, written by Peter Selinger 2001-2017
</metadata>
<g transform="translate(0.000000,512.000000) scale(0.100000,-0.100000)"
fill="#000000" stroke="none">
<path d="M2113 4675 c-334 -60 -629 -284 -783 -594 -77 -154 -110 -295 -113
-485 l-2 -128 -75 -19 c-156 -40 -295 -123 -411 -247 -107 -114 -163 -216
-206 -373 -25 -89 -24 -318 1 -409 82 -302 313 -531 615 -612 108 -29 488 -39
526 -14 19 12 25 25 25 51 0 60 -18 65 -238 65 -142 0 -212 4 -265 16 -238 54
-434 226 -518 454 -156 430 115 890 566 960 44 7 87 19 95 27 12 11 15 47 15
196 0 199 9 249 66 398 85 221 298 437 520 530 131 54 228 73 379 73 151 0
228 -14 355 -63 203 -78 380 -229 489 -416 53 -89 69 -96 146 -61 186 84 370
66 536 -50 173 -122 251 -343 197 -565 -20 -82 -19 -83 82 -138 146 -81 255
-195 321 -338 53 -112 67 -188 61 -333 -3 -107 -8 -137 -34 -207 -41 -113 -86
-185 -168 -268 -81 -83 -176 -142 -290 -182 -77 -26 -90 -27 -328 -33 -247 -5
-249 -5 -268 -29 -23 -28 -18 -57 14 -85 20 -17 38 -18 247 -14 245 5 313 16
442 69 200 82 385 274 462 480 120 321 39 671 -212 911 -43 41 -106 91 -138
110 -53 31 -59 38 -56 64 1 16 4 76 5 134 3 182 -58 327 -193 461 -90 89 -196
148 -316 175 -98 21 -241 15 -333 -16 -35 -12 -67 -18 -71 -13 -3 4 -28 38
-53 75 -160 228 -424 394 -704 443 -103 18 -291 18 -390 0z"/>
<path d="M2175 4379 c-357 -60 -655 -400 -655 -748 0 -63 12 -87 50 -96 47
-11 61 12 76 121 29 207 99 335 249 460 104 86 209 128 356 144 50 5 97 14
105 21 20 16 18 73 -4 92 -20 19 -90 21 -177 6z"/>
<path d="M2348 2404 c-69 -67 -88 -91 -88 -113 0 -60 64 -80 112 -34 l28 27 0
-132 c0 -152 -11 -191 -62 -222 -30 -18 -50 -20 -256 -20 l-223 0 -25 -25
c-29 -29 -26 -58 9 -88 19 -17 40 -18 257 -15 208 3 239 5 270 22 65 35 99 68
125 119 23 48 25 60 25 204 l0 152 25 -24 c13 -14 36 -25 50 -25 30 0 65 32
65 60 0 11 -36 61 -81 110 -107 120 -113 120 -231 4z"/>
<path d="M2770 1901 c-54 -17 -110 -52 -134 -84 -48 -63 -59 -104 -64 -243
l-4 -131 -24 24 c-28 28 -65 30 -89 3 -35 -39 -23 -66 66 -156 111 -112 115
-112 231 4 48 49 88 95 88 104 0 25 -40 68 -63 68 -11 0 -34 -12 -49 -27 l-28
-27 0 133 0 133 39 39 39 39 231 0 c218 0 232 1 251 20 23 23 26 58 6 86 -13
18 -29 19 -243 21 -125 1 -239 -2 -253 -6z"/>
<path d="M1450 1710 c-20 -20 -20 -33 -20 -633 0 -600 0 -614 20 -632 19 -17
74 -18 1110 -18 1031 1 1092 2 1110 18 19 18 20 35 20 632 0 600 0 613 -20
633 -26 26 -62 26 -85 0 -17 -19 -18 -53 -18 -590 l0 -570 -1007 0 -1007 0 0
570 c1 538 0 571 -18 590 -23 26 -59 26 -85 0z"/>
<path d="M1992 1654 c-30 -21 -30 -77 0 -98 19 -13 58 -16 228 -16 233 0 250
4 250 65 0 61 -17 65 -250 65 -170 0 -209 -3 -228 -16z"/>
<path d="M2825 1645 c-31 -30 -32 -55 -2 -83 21 -20 34 -22 153 -22 150 0 174
9 174 65 0 56 -24 65 -173 65 -122 0 -129 -1 -152 -25z"/>
<path d="M1986 1324 c-9 -8 -16 -28 -16 -44 0 -57 12 -60 224 -60 215 0 229 4
229 60 0 56 -14 60 -229 60 -162 0 -195 -3 -208 -16z"/>
<path d="M2827 1322 c-22 -24 -21 -65 1 -85 15 -14 42 -17 155 -17 150 0 167
6 167 60 0 54 -17 60 -169 60 -121 0 -140 -2 -154 -18z"/>
<path d="M1992 1004 c-15 -10 -22 -25 -22 -49 0 -67 -18 -65 590 -65 608 0
590 -2 590 65 0 67 18 65 -590 65 -478 0 -548 -2 -568 -16z"/>
</g>
</svg>
